<svg xmlns="http://www.w3.org/2000/svg" width="299.491" height="191.695" viewBox="0 0 299.491 191.695">
    <defs>
        <filter id="prefix__Trazado_1" width="299.491" height="191.695" x="0" y="0" filterUnits="userSpaceOnUse">
            <feOffset dy="3"/>
            <feGaussianBlur result="blur" stdDeviation="13.5"/>
            <feFlood flood-opacity=".161"/>
            <feComposite in2="blur" operator="in"/>
            <feComposite in="SourceGraphic"/>
        </filter>
        <style>
            .prefix__cls-4{font-size:32px}.prefix__cls-7{fill:#fff}.prefix__cls-6{fill:#fbb03b}
        </style>
    </defs>
    <g id="prefix__Grupo_6" data-name="Grupo 6" transform="translate(-91.5 -491.5)">
        <g id="prefix__Grupo_5" data-name="Grupo 5" transform="translate(132 529)">
            <g transform="translate(-40.5 -37.5)">
                <path id="prefix__Trazado_1-2" d="M650.533 863.772V831.8a3.721 3.721 0 0 0-2.516-3.52l-102.9-35.2a11.83 11.83 0 0 0-7.657 0l-102.9 35.2a3.722 3.722 0 0 0-2.516 3.52v31.972a3.721 3.721 0 0 0 2.516 3.52l102.9 35.2a11.824 11.824 0 0 0 7.657 0l102.9-35.2a3.72 3.72 0 0 0 2.516-3.52z" data-name="Trazado 1" transform="translate(-391.54 -754.94)" style="fill:#000102"/>
            </g>
            <path id="prefix__Trazado_2" d="M651.288 867.724v-28.545a3.721 3.721 0 0 0-2.561-3.535L551.3 803.683a11.827 11.827 0 0 0-7.374 0L446.5 835.645a3.721 3.721 0 0 0-2.561 3.535v28.545a3.72 3.72 0 0 0 2.56 3.535l97.427 31.962a11.829 11.829 0 0 0 7.374 0l97.427-31.962a3.72 3.72 0 0 0 2.561-3.536z" data-name="Trazado 2" transform="translate(-438.369 -798.105)" style="fill:#000101;stroke:#fff;stroke-linejoin:round;stroke-width:3px"/>
            <text id="prefix__ROVIANDA" transform="translate(13.587 67.802)" style="font-size:37px;font-family:Vidaloka-Regular,Vidaloka;letter-spacing:.089em;fill:#c7b299">
                <tspan x="0" y="0">R</tspan><tspan y="0" class="prefix__cls-4">OVIAND</tspan><tspan y="0">A</tspan>
            </text>
            <text id="prefix__ROVIANDA-2" data-name="ROVIANDA" transform="translate(13.587 66.866)" style="fill:#fff;font-size:37px;font-family:Vidaloka-Regular,Vidaloka;letter-spacing:.089em">
                <tspan x="0" y="0">R</tspan><tspan y="0" class="prefix__cls-4">OVIAND</tspan><tspan y="0">A</tspan>
            </text>
            <g id="prefix__Grupo_1" data-name="Grupo 1" transform="translate(94.495 87.585)">
                <path id="prefix__Trazado_3" d="M659.874 985.395l-2.316 1.217.442-2.579-1.873-1.826 2.589-.376 1.158-2.346 1.158 2.346 2.589.376-1.874 1.826.442 2.579z" class="prefix__cls-6" data-name="Trazado 3" transform="translate(-645.693 -979.485)"/>
                <circle id="prefix__Elipse_6" cx="1.873" cy="1.873" r="1.873" class="prefix__cls-6" data-name="Elipse 6" transform="translate(25.754 1.646)"/>
                <circle id="prefix__Elipse_7" cx="1.873" cy="1.873" r="1.873" class="prefix__cls-6" data-name="Elipse 7" transform="translate(0 1.646)"/>
            </g>
            <g id="prefix__Grupo_3" data-name="Grupo 3" transform="translate(67.299 16.304)">
                <g id="prefix__Grupo_2" data-name="Grupo 2">
                    <path id="prefix__Trazado_4" d="M577.775 841.37l2.114 6.205-.3.1-2.036-5.925c-.676.232-1.014.351-1.688.594l-.1-.273c.803-.286 1.205-.427 2.01-.701z" class="prefix__cls-7" data-name="Trazado 4" transform="translate(-575.766 -834.762)"/>
                    <path id="prefix__Trazado_5" d="M589.63 843.969a2.7 2.7 0 0 1-1.227-.837 4.331 4.331 0 0 1-.842-1.566 4.177 4.177 0 0 1-.2-1.768 2.62 2.62 0 0 1 .577-1.394 2.645 2.645 0 0 1 2.733-.8 2.625 2.625 0 0 1 1.229.867 4.186 4.186 0 0 1 .78 1.6 4.348 4.348 0 0 1 .133 1.773 2.715 2.715 0 0 1-.578 1.363 2.5 2.5 0 0 1-2.6.76zm2.379-.954a2.379 2.379 0 0 0 .5-1.227 4.163 4.163 0 0 0-.144-1.63 4.026 4.026 0 0 0-.705-1.477 2.314 2.314 0 0 0-1.088-.787 2.285 2.285 0 0 0-2.4.7 2.33 2.33 0 0 0-.491 1.247 4.011 4.011 0 0 0 .2 1.625 4.153 4.153 0 0 0 .756 1.452 2.4 2.4 0 0 0 1.078.767 2.04 2.04 0 0 0 1.246.011 2.064 2.064 0 0 0 1.049-.681z" class="prefix__cls-7" data-name="Trazado 5" transform="translate(-581.918 -832.701)"/>
                    <path id="prefix__Trazado_6" d="M604.647 840a2.708 2.708 0 0 1-1.17-.911 4.355 4.355 0 0 1-.744-1.615 4.186 4.186 0 0 1-.094-1.776 2.616 2.616 0 0 1 .657-1.355 2.626 2.626 0 0 1 2.765-.627 2.631 2.631 0 0 1 1.171.94 4.2 4.2 0 0 1 .68 1.643 4.36 4.36 0 0 1 .026 1.778 2.718 2.718 0 0 1-.656 1.325 2.482 2.482 0 0 1-2.635.6zm2.423-.805a2.382 2.382 0 0 0 .571-1.193 4.186 4.186 0 0 0-.046-1.636 4.03 4.03 0 0 0-.613-1.517 2.306 2.306 0 0 0-1.035-.853 2.149 2.149 0 0 0-1.3-.087 2.127 2.127 0 0 0-1.129.637 2.324 2.324 0 0 0-.563 1.214 4.023 4.023 0 0 0 .1 1.634 4.166 4.166 0 0 0 .664 1.5 2.4 2.4 0 0 0 1.026.832 2.025 2.025 0 0 0 1.238.088 2.048 2.048 0 0 0 1.087-.62z" class="prefix__cls-7" data-name="Trazado 6" transform="translate(-590.026 -830.605)"/>
                    <path id="prefix__Trazado_7" d="M617.962 833.524a1.905 1.905 0 0 1-.641-1.181 1.866 1.866 0 0 1 .179-1.334 1.474 1.474 0 0 1 2.157-.376 1.865 1.865 0 0 1 .62 1.194 1.908 1.908 0 0 1-.2 1.329 1.441 1.441 0 0 1-2.112.368zm1.9-.5a1.723 1.723 0 0 0 .149-1.154 1.688 1.688 0 0 0-.516-1.044 1.183 1.183 0 0 0-1.773.309 1.671 1.671 0 0 0-.138 1.158 1.706 1.706 0 0 0 .537 1.034 1.16 1.16 0 0 0 1.742-.3zm2.9-3.322l.309-.043c-1.553 2.858-2.277 4.3-3.62 7.2l-.291.052c1.332-2.903 2.052-4.347 3.598-7.211zm-.374 6.218a1.938 1.938 0 0 1-.591-1.2 1.9 1.9 0 0 1 .213-1.325 1.415 1.415 0 0 1 2.116-.3 1.881 1.881 0 0 1 .574 1.215 1.924 1.924 0 0 1-.241 1.32 1.316 1.316 0 0 1-.971.619 1.3 1.3 0 0 1-1.104-.329zm1.859-.428a1.74 1.74 0 0 0 .184-1.148 1.7 1.7 0 0 0-.478-1.062 1.071 1.071 0 0 0-.923-.29 1.059 1.059 0 0 0-.8.532 1.72 1.72 0 0 0-.162 1.151 1.757 1.757 0 0 0 .488 1.054 1.042 1.042 0 0 0 .9.286 1.054 1.054 0 0 0 .788-.522z" class="prefix__cls-7" data-name="Trazado 7" transform="translate(-597.838 -828.535)"/>
                    <path id="prefix__Trazado_8" d="M650.368 827.38l.214 6.552-.266.009c-1.973-2.323-3.007-3.464-5.17-5.7l.449 5.958-.323.025-.51-6.536.28-.022c2.173 2.233 3.213 3.373 5.2 5.695l-.211-5.971z" class="prefix__cls-7" data-name="Trazado 8" transform="translate(-612.454 -827.323)"/>
                    <path id="prefix__Trazado_9" d="M667.027 831.94c-1.619-.049-2.43-.06-4.049-.053-.361.769-.538 1.154-.887 1.926h-.352c1.195-2.64 1.827-3.952 3.159-6.559h.332c1.263 2.641 1.86 3.97 2.985 6.64l-.352-.014c-.328-.772-.495-1.162-.836-1.94zm-.118-.276c-.713-1.621-1.082-2.429-1.846-4.038-.81 1.589-1.2 2.387-1.962 3.988 1.525-.005 2.286.006 3.809.05z" class="prefix__cls-7" data-name="Trazado 9" transform="translate(-621.482 -827.258)"/>
                    <path id="prefix__Trazado_10" d="M680.1 827.957c-1.028-.069-1.543-.1-2.572-.146l.013-.29c2.2.1 3.293.177 5.483.375l-.026.289c-1.027-.094-1.541-.135-2.569-.207l-.436 6.25-.313-.022.42-6.249z" class="prefix__cls-7" data-name="Trazado 10" transform="translate(-629.877 -827.398)"/>
                    <path id="prefix__Trazado_11" d="M693.11 834.67a2.9 2.9 0 0 1-.468-2.153c.162-1.508.243-2.262.4-3.771l.34.037-.414 3.761a2.678 2.678 0 0 0 .385 1.942 2.685 2.685 0 0 0 3.4.442 2.664 2.664 0 0 0 .874-1.778l.56-3.742.329.05-.572 3.749a2.9 2.9 0 0 1-1 1.963 3.048 3.048 0 0 1-3.844-.5z" class="prefix__cls-7" data-name="Trazado 11" transform="translate(-637.899 -828.049)"/>
                    <path id="prefix__Trazado_12" d="M714.547 838.845c-.45-1.025-.681-1.537-1.158-2.558a4.657 4.657 0 0 1-.737-.094c-.8-.161-1.2-.237-2-.384-.159.866-.239 1.3-.4 2.164l-.32-.058 1.167-6.451c.964.174 1.446.266 2.407.46a3.2 3.2 0 0 1 1.9.987 1.9 1.9 0 0 1 .37 1.719 2.038 2.038 0 0 1-.706 1.19 2.269 2.269 0 0 1-1.346.461c.491 1.057.729 1.586 1.191 2.647zm-1.817-2.932a2.828 2.828 0 0 0 1.824-.121 1.7 1.7 0 0 0 .907-1.234 1.649 1.649 0 0 0-.316-1.494 2.832 2.832 0 0 0-1.67-.851c-.833-.168-1.25-.249-2.085-.4l-.682 3.712c.809.148 1.214.225 2.021.388z" class="prefix__cls-7" data-name="Trazado 12" transform="translate(-647.111 -829.495)"/>
                    <path id="prefix__Trazado_13" d="M729.274 841.291c-1.572-.452-2.361-.664-3.944-1.061-.542.656-.81.985-1.341 1.646l-.345-.083c1.817-2.261 2.759-3.376 4.7-5.57l.323.087c.582 2.874.839 4.311 1.28 7.18l-.34-.1c-.125-.84-.193-1.26-.333-2.099zm-.047-.3c-.3-1.749-.458-2.624-.807-4.374-1.184 1.338-1.764 2.014-2.9 3.377 1.486.378 2.228.577 3.707 1.001z" class="prefix__cls-7" data-name="Trazado 13" transform="translate(-654.399 -832.025)"/>
                    <path id="prefix__Trazado_14" d="M743.522 839.771l.329.105-1.922 5.963c1.506.486 2.256.741 3.749 1.279l-.1.273c-1.613-.581-2.424-.856-4.052-1.376z" class="prefix__cls-7" data-name="Trazado 14" transform="translate(-663.909 -833.912)"/>
                </g>
            </g>
            <g id="prefix__Grupo_4" data-name="Grupo 4" transform="translate(105.251 29.095)">
                <path id="prefix__Trazado_15" d="M663.4 855.593c-.039-.039-.079-.077-.117-.117-.089-.094-.081-.154.035-.217a2.294 2.294 0 0 1 .241-.111 11.7 11.7 0 0 0 1.1-.541c.035-.018.066-.057.112-.016s.029.082.009.126l-.39.851-.2.437c-.01.023-.02.046-.032.069-.071.135-.118.145-.23.048-.071-.061-.141-.121-.206-.188-.046-.049-.078-.046-.123 0-.152.159-.306.314-.461.47l-2.291 2.31q-.616.62-1.233 1.238a.189.189 0 0 0-.063.154v.67a.2.2 0 0 1-.049.114c-.4.569-.817 1.126-1.256 1.666a.876.876 0 0 1-.111.1c-.071.062-.093.058-.148-.015a.254.254 0 0 1-.041-.144 6.714 6.714 0 0 1-.018-.759.159.159 0 0 0-.156-.167l-.784-.04a.4.4 0 0 1-.1-.015.085.085 0 0 1-.034-.155c.065-.06.135-.114.206-.168.469-.365.94-.727 1.438-1.055l.031-.022a.874.874 0 0 1 .649-.186.539.539 0 0 0 .5-.2c.949-.973 1.909-1.935 2.867-2.9.306-.309.614-.615.921-.922l.08-.081a.055.055 0 0 0 0-.088l-.144-.143zm-4.666 6a.53.53 0 0 0 .243-.487 1.4 1.4 0 0 1 .007-.177 2.558 2.558 0 0 0 0-.346l-.143.142a.15.15 0 0 0-.056.142 2.119 2.119 0 0 1-.018.429q-.011.149-.029.298zm-.044-.713c-.067.066-.115.117-.166.165a.119.119 0 0 0-.035.1 5.065 5.065 0 0 1-.029.72.176.176 0 0 0 .008.127c.05-.065.113-.115.123-.2.019-.159.042-.317.061-.476a2.826 2.826 0 0 0 .042-.435zm-.371.213c-.006-.028-.029-.027-.049-.026a7.124 7.124 0 0 1-.721.012.281.281 0 0 0-.256.126c.029.031.064.019.1.019a4.366 4.366 0 0 1 .606.016.3.3 0 0 0 .318-.137zm-.385-.383c.236-.013.451-.036.664-.031a.334.334 0 0 0 .3-.192c-.186.008-.359.025-.53.022a.6.6 0 0 0-.431.202zm.665.087l-.819.059a.223.223 0 0 0-.173.11.3.3 0 0 0 .048.008c.24 0 .479-.014.719.007a.092.092 0 0 0 .082-.021.9.9 0 0 0 .144-.16zm-.206.4c-.044.006-.058.041-.083.06a.188.188 0 0 0-.076.2 2.174 2.174 0 0 1 .007.379c-.005.146-.006.293-.01.463a.314.314 0 0 0 .1-.18c.018-.265.041-.53.061-.794a.283.283 0 0 0 .008-.125zm-1.344.193a.351.351 0 0 0 .052.012c.223.015.446.037.67.038.049 0 .1-.014.146.024.021.018.039 0 .054-.012l.092-.1a.228.228 0 0 0-.133-.015c-.232 0-.464 0-.695-.024a.182.182 0 0 0-.183.082zm2.411-1.266c-.132.087-.2.177-.168.318a.835.835 0 0 1 .007.164v.264c.094-.079.161-.142.139-.263a1 1 0 0 1 .008-.214c.01-.078.012-.162.016-.265zm-1.378 2.361c.037-.027.061-.048.049-.1a.39.39 0 0 1-.006-.112l.034-.719a.287.287 0 0 0-.011-.128.423.423 0 0 0-.13.128c-.022.037.028.075.025.118v.075c0 .168.007.337.013.5a.706.706 0 0 0 .028.242zm1-1.326a.241.241 0 0 0 .109-.2c0-.063.008-.126.008-.189 0-.125-.007-.249-.01-.38-.075.058-.138.11-.112.224a1.223 1.223 0 0 1 .007.251l-.002.299zm.268-1.128a3.4 3.4 0 0 1-.4-.012.07.07 0 0 0-.059.015c-.053.051-.13.071-.183.142a3.227 3.227 0 0 1 .487.005c.023 0 .039-.011.054-.026a.441.441 0 0 0 .101-.119zm-.242.245a2.839 2.839 0 0 1-.527.022.194.194 0 0 0-.172.06c.191.006.388.014.585.018.053.006.079-.037.115-.095z" class="prefix__cls-7" data-name="Trazado 15" transform="translate(-656.816 -854.574)"/>
                <path id="prefix__Trazado_16" d="M658.217 855.595l-.143.143a.055.055 0 0 0 0 .088l.08.081c.307.308.615.614.921.922.958.965 1.918 1.926 2.867 2.9a.539.539 0 0 0 .5.2.874.874 0 0 1 .649.186l.031.022c.5.327.968.689 1.438 1.055.07.054.14.108.206.168a.085.085 0 0 1-.034.155.4.4 0 0 1-.1.015l-.784.04a.159.159 0 0 0-.156.167 6.728 6.728 0 0 1-.018.759.254.254 0 0 1-.041.144c-.056.073-.078.077-.148.015a.868.868 0 0 1-.111-.1c-.439-.54-.856-1.1-1.256-1.666a.2.2 0 0 1-.049-.114c0-.223-.008-.447 0-.67a.189.189 0 0 0-.063-.154q-.618-.618-1.233-1.238l-2.292-2.31c-.155-.156-.309-.311-.461-.47-.045-.047-.077-.05-.123 0-.064.066-.135.127-.206.188-.113.1-.16.087-.23-.048-.012-.022-.022-.046-.032-.069l-.2-.437-.39-.851c-.02-.044-.037-.085.009-.126s.077 0 .112.016a11.7 11.7 0 0 0 1.1.541 2.257 2.257 0 0 1 .242.111c.116.063.124.123.035.217-.038.04-.078.078-.117.117zm4.629 5.7a2.119 2.119 0 0 1-.018-.429.151.151 0 0 0-.056-.142c-.046-.04-.087-.086-.143-.142a2.558 2.558 0 0 0 0 .346 1.5 1.5 0 0 1 .007.177.53.53 0 0 0 .243.487l-.033-.292zm.118.021c.019.159.043.317.061.476.01.087.073.136.123.2a.176.176 0 0 0 .008-.127 5.074 5.074 0 0 1-.03-.72.119.119 0 0 0-.035-.1c-.052-.047-.1-.1-.166-.165a2.767 2.767 0 0 0 .039.437zm.339-.213a.3.3 0 0 0 .318.137 4.364 4.364 0 0 1 .606-.016c.032 0 .067.012.1-.019a.281.281 0 0 0-.256-.126 7.126 7.126 0 0 1-.721-.012c-.021 0-.043 0-.049.026a.09.09 0 0 0-.001.007zm-.06-.6c-.171 0-.344-.013-.53-.022a.334.334 0 0 0 .3.192c.213-.006.427.018.664.031a.6.6 0 0 0-.434-.195zm-.084.45a.092.092 0 0 0 .082.021c.24-.021.479-.01.719-.007a.3.3 0 0 0 .048-.008.221.221 0 0 0-.172-.11l-.819-.059a.924.924 0 0 0 .142.17zm.062.366c.02.265.043.529.061.794 0 .07.045.112.1.18 0-.17 0-.317-.01-.463a2.174 2.174 0 0 1 .007-.379.188.188 0 0 0-.076-.2c-.025-.019-.039-.054-.083-.06a.283.283 0 0 0 .001.134zm1.16-.01c-.231.023-.463.022-.695.024a.23.23 0 0 0-.133.015l.093.1c.015.016.033.03.054.012.044-.038.1-.024.146-.024.224 0 .447-.023.67-.038a.363.363 0 0 0 .052-.012.182.182 0 0 0-.187-.071zm-2.213-.917a.969.969 0 0 1 .008.214c-.021.12.045.184.14.263v-.264a.869.869 0 0 1 .007-.164c.031-.141-.036-.231-.168-.318l.013.277zm1.391 1.863c.006-.168.009-.337.013-.5 0-.025.005-.051 0-.075 0-.043.046-.081.025-.118a.424.424 0 0 0-.13-.128.287.287 0 0 0-.011.128l.034.719a.408.408 0 0 1-.006.112c-.013.048.011.069.049.1a.706.706 0 0 0 .025-.233zm-1.022-1.392a1.214 1.214 0 0 1 .007-.251c.026-.114-.037-.166-.112-.224 0 .131-.009.255-.01.38 0 .063.008.125.008.189a.241.241 0 0 0 .109.2l-.003-.288zm-.164-.709a.063.063 0 0 0 .054.026 3.222 3.222 0 0 1 .486-.005c-.052-.071-.129-.091-.182-.142a.07.07 0 0 0-.059-.015 3.4 3.4 0 0 1-.4.012.434.434 0 0 0 .1.13zm.252.221c.2 0 .394-.012.585-.018a.2.2 0 0 0-.172-.06 2.837 2.837 0 0 1-.526-.022c.035.064.06.107.112.106z" class="prefix__cls-7" data-name="Trazado 16" transform="translate(-656.816 -854.574)"/>
            </g>
        </g>
    </g>
</svg>
