<svg xmlns="http://www.w3.org/2000/svg" width="24.5" height="28" viewBox="0 0 24.5 28">
    <defs>
        <style>
            .cls-1{fill:#717171}
        </style>
    </defs>
    <path id="lock-alt-regular" d="M12.25 22.531A1.529 1.529 0 0 1 10.719 21v-3.5a1.531 1.531 0 0 1 3.062 0V21a1.529 1.529 0 0 1-1.531 1.531zm12.25-9.406v12.25A2.626 2.626 0 0 1 21.875 28H2.625A2.626 2.626 0 0 1 0 25.375v-12.25A2.626 2.626 0 0 1 2.625 10.5h1.75V7.875a7.875 7.875 0 1 1 15.75.077V10.5h1.75a2.626 2.626 0 0 1 2.625 2.625zM7 10.5h10.5V7.875a5.25 5.25 0 0 0-10.5 0zm14.875 2.625H2.625v12.25h19.25z" class="cls-1"/>
</svg>
