<svg xmlns="http://www.w3.org/2000/svg" width="111" height="111" viewBox="0 0 111 111">
    <path id="prefix__Sustracción_6" d="M55.5 111a55.91 55.91 0 0 1-11.185-1.128 55.2 55.2 0 0 1-19.845-8.351A55.662 55.662 0 0 1 4.361 77.1a55.219 55.219 0 0 1-3.233-10.415 56.041 56.041 0 0 1 0-22.37 55.2 55.2 0 0 1 8.35-19.846A55.662 55.662 0 0 1 33.9 4.361a55.22 55.22 0 0 1 10.415-3.233 56.041 56.041 0 0 1 22.37 0 55.2 55.2 0 0 1 19.845 8.35A55.661 55.661 0 0 1 106.638 33.9a55.22 55.22 0 0 1 3.234 10.418 56.041 56.041 0 0 1 0 22.37 55.2 55.2 0 0 1-8.351 19.845A55.661 55.661 0 0 1 77.1 106.638a55.219 55.219 0 0 1-10.418 3.234A55.911 55.911 0 0 1 55.5 111zm.086-91.493a36.345 36.345 0 0 0-7.271.733 35.881 35.881 0 0 0-12.9 5.429 36.184 36.184 0 0 0-13.073 15.874 35.9 35.9 0 0 0-2.1 6.772 36.431 36.431 0 0 0 0 14.542 35.881 35.881 0 0 0 5.429 12.9A36.184 36.184 0 0 0 41.543 88.83a35.9 35.9 0 0 0 6.772 2.1 36.431 36.431 0 0 0 14.542 0 35.882 35.882 0 0 0 12.9-5.429A36.184 36.184 0 0 0 88.83 69.63a35.9 35.9 0 0 0 2.1-6.772 36.431 36.431 0 0 0 0-14.542 35.882 35.882 0 0 0-5.429-12.9A36.185 36.185 0 0 0 69.63 22.342a35.9 35.9 0 0 0-6.772-2.1 36.345 36.345 0 0 0-7.272-.735z" data-name="Sustracción 6" style="fill:#fff"/>
</svg>
