<svg xmlns="http://www.w3.org/2000/svg" width="299" height="299" viewBox="0 0 299 299">
    <path id="prefix__Sustracción_5" d="M149.5 299a150.606 150.606 0 0 1-30.129-3.037 148.683 148.683 0 0 1-53.457-22.495 149.936 149.936 0 0 1-54.165-65.776 148.743 148.743 0 0 1-8.711-28.063 150.957 150.957 0 0 1 0-60.259 148.681 148.681 0 0 1 22.494-53.457 149.936 149.936 0 0 1 65.776-54.165 148.747 148.747 0 0 1 28.062-8.711 150.957 150.957 0 0 1 60.259 0 148.681 148.681 0 0 1 53.457 22.495 149.935 149.935 0 0 1 54.164 65.776 148.746 148.746 0 0 1 8.711 28.063 150.958 150.958 0 0 1 0 60.259 148.683 148.683 0 0 1-22.495 53.457 149.934 149.934 0 0 1-65.776 54.164 148.744 148.744 0 0 1-28.063 8.711A150.607 150.607 0 0 1 149.5 299zm.233-246.454a97.9 97.9 0 0 0-19.587 1.974 96.653 96.653 0 0 0-34.751 14.624A97.47 97.47 0 0 0 60.183 111.9a96.7 96.7 0 0 0-5.663 18.243 98.134 98.134 0 0 0 0 39.173 96.652 96.652 0 0 0 14.624 34.754 97.47 97.47 0 0 0 42.756 35.212 96.7 96.7 0 0 0 18.243 5.663 98.134 98.134 0 0 0 39.173 0 96.654 96.654 0 0 0 34.751-14.623 97.47 97.47 0 0 0 35.211-42.759 96.7 96.7 0 0 0 5.663-18.243 98.134 98.134 0 0 0 0-39.173 96.655 96.655 0 0 0-14.623-34.751 97.47 97.47 0 0 0-42.759-35.211 96.7 96.7 0 0 0-18.243-5.663 97.9 97.9 0 0 0-19.583-1.976z" data-name="Sustracción 5" style="fill:#fff"/>
</svg>
