<svg xmlns="http://www.w3.org/2000/svg" width="29.313" height="33.5" viewBox="0 0 29.313 33.5">
    <defs>
        <style>
            .cls-1{fill:#717171}
        </style>
    </defs>
    <path id="user-regular" d="M20.519 19.891c-1.878 0-2.781 1.047-5.863 1.047s-3.978-1.047-5.863-1.047A8.8 8.8 0 0 0 0 28.684v1.675A3.141 3.141 0 0 0 3.141 33.5h23.031a3.141 3.141 0 0 0 3.141-3.141v-1.675a8.8 8.8 0 0 0-8.794-8.793zm5.653 10.469H3.141v-1.676a5.663 5.663 0 0 1 5.653-5.653c.955 0 2.506 1.047 5.863 1.047 3.383 0 4.9-1.047 5.863-1.047a5.663 5.663 0 0 1 5.653 5.653zM14.656 18.844a9.422 9.422 0 1 0-9.422-9.422 9.424 9.424 0 0 0 9.422 9.422zm0-15.7a6.281 6.281 0 1 1-6.281 6.278 6.291 6.291 0 0 1 6.281-6.281z" class="cls-1"/>
</svg>
