<svg xmlns="http://www.w3.org/2000/svg" width="63" height="84" viewBox="0 0 63 84">
    <path id="prefix__file-excel-solid" d="M36.75 22.313V0H3.938A3.928 3.928 0 0 0 0 3.938v76.125A3.928 3.928 0 0 0 3.938 84h55.125A3.928 3.928 0 0 0 63 80.063V26.25H40.688a3.949 3.949 0 0 1-3.938-3.937zm9.86 17.473l-9.86 15.34 9.86 15.34a1.971 1.971 0 0 1-1.657 3.034h-5.726a1.976 1.976 0 0 1-1.739-1.034C34.273 66.527 31.5 61.2 31.5 61.2c-1.05 2.428-1.641 3.281-6 11.287a1.95 1.95 0 0 1-1.723 1.034h-5.73a1.971 1.971 0 0 1-1.657-3.035l9.893-15.34L16.39 39.8a1.967 1.967 0 0 1 1.657-3.035h5.709A1.976 1.976 0 0 1 25.5 37.8c4.282 8.006 3.281 5.512 6 11.238 0 0 1-1.92 6-11.238a1.976 1.976 0 0 1 1.739-1.034h5.709a1.957 1.957 0 0 1 1.657 3.019zM63 20v1H42V0h1a3.935 3.935 0 0 1 2.79 1.148l16.062 16.079A3.925 3.925 0 0 1 63 20z" style="fill:#575552"/>
</svg>
